<svg width="100" height="100" viewBox="0 0 100 100" xmlns="http://www.w3.org/2000/svg">
  <!-- Wings -->
  <defs>
    <linearGradient id="wing-gradient" x1="0%" y1="0%" x2="100%" y2="100%">
      <stop offset="0%" style="stop-color:#DAA520; stop-opacity:1" />
      <stop offset="100%" style="stop-color:#FFD700; stop-opacity:1" />
    </linearGradient>
  </defs>
  <polygon points="15,50 0,30 25,30 15,50 0,70 25,70" fill="url(#wing-gradient)" stroke="#B8860B" stroke-width="2" />
  <polygon points="85,50 100,30 75,30 85,50 100,70 75,70" fill="url(#wing-gradient)" stroke="#B8860B" stroke-width="2" />

  <!-- Main Shield -->
  <defs>
    <linearGradient id="vibrant-gold-gradient" x1="0%" y1="0%" x2="100%" y2="100%">
      <stop offset="0%" style="stop-color:#FFDD50; stop-opacity:1" />
      <stop offset="100%" style="stop-color:#FFD700; stop-opacity:1" />
    </linearGradient>
    <linearGradient id="gold-highlight" x1="0%" y1="0%" x2="0%" y2="100%">
      <stop offset="0%" style="stop-color:#FFF8DC; stop-opacity:0.7" />
      <stop offset="100%" style="stop-color:transparent; stop-opacity:0" />
    </linearGradient>
  </defs>
  <polygon points="50,5 90,35 75,90 25,90 10,35" fill="url(#vibrant-gold-gradient)" stroke="#B8860B" stroke-width="3" />
  <polygon points="50,5 90,35 75,90 25,90 10,35" fill="url(#gold-highlight)" />
  
  <!-- Shadow -->
  <polygon points="50,5 90,35 75,90 25,90 10,35" fill="none" stroke="#000000" stroke-width="1" opacity="0.15" transform="translate(2, 2)" />
</svg>
